#!OML:ASF F:\VICON\USERDATA\INSTALL\rory3\rory3.ASF
:FULLY-SPECIFIED
:DEGREES
3972
root -0.985912 17.6216 2.60453 9.75944 4.8098 -1.13136
lowerback 10.699 1.54972 -0.434059
upperback 2.31414 2.01864 0.304634
thorax -3.60827 1.00475 0.285896
lowerneck -24.6046 -13.4633 -12.8859
upperneck 11.6396 -17.2038 16.0723
head 10.3196 -6.99612 4.69473
rclavicle 1.87852e-014 -9.93923e-015
rhumerus 47.139 -13.3558 -36.1978
rradius 54.3839
rwrist 45.7551
rhand -65.874 -21.3508
rfingers 7.12502
rthumb -37.724 -47.2246
lclavicle 1.87852e-014 -9.93923e-015
lhumerus -34.384 4.21029 65.9853
lradius 39.7527
lwrist -22.8322
lhand -30.9395 19.1113
lfingers 7.12502
lthumb -4.22467 409.049
rfemur -24.7397 -8.99256 14.9521
rtibia 34.7998
rfoot -14.7037 -0.698825
rtoes 2.98031
lfemur -19.476 1.17147 -8.22942
ltibia 26.4515
lfoot -10.3437 9.98512
ltoes -27.1141
3973
root -1.02371 17.6235 2.61562 9.77455 4.44989 -0.85594
lowerback 10.6358 1.48111 -0.412581
upperback 2.13634 1.9323 0.344172
thorax -3.75827 0.962247 0.325415
lowerneck -23.8581 -13.2295 -12.8046
upperneck 11.52 -16.9155 15.8109
head 10.0703 -6.93278 4.67862
rclavicle -1.36664e-014 4.77083e-015
rhumerus 47.2792 -13.3912 -36.4786
rradius 53.9636
rwrist 45.7078
rhand -65.8165 -21.8265
rfingers 7.12502
rthumb -37.6696 -47.7148
lclavicle -1.36664e-014 4.77083e-015
lhumerus -34.8412 4.18808 66.0846
lradius 39.8371
lwrist -23.158
lhand -30.9572 18.6953
lfingers 7.12502
lthumb -4.24183 408.633
rfemur -24.906 -8.91292 14.7734
rtibia 35.0295
rfoot -14.7029 -0.479804
rtoes 3.191
lfemur -19.064 1.07365 -8.40519
ltibia 25.9749
lfoot -10.1868 10.3508
ltoes -26.8123
3974
root -1.06246 17.6253 2.62452 9.80296 4.10314 -0.634726
lowerback 10.6718 1.45189 -0.205926
upperback 2.24549 1.91645 0.358581
thorax -3.65809 0.952143 0.227254
lowerneck -24.6478 -13.3013 -12.667
upperneck 11.8283 -16.9388 15.4934
head 10.2636 -6.91685 4.51552
rclavicle -3.2054e-014 -4.37326e-015
rhumerus 47.6083 -13.9872 -36.755
rradius 53.8049
rwrist 44.9594
rhand -65.9472 -19.7102
rfingers 7.12502
rthumb -37.7931 -45.5654
lclavicle -3.2054e-014 -4.37326e-015
lhumerus -34.5822 4.29554 66.3184
lradius 39.7667
lwrist -23.3287
lhand -31.0796 18.8007
lfingers 7.12502
lthumb -4.36 408.736
rfemur -25.1054 -8.75009 14.6695
rtibia 35.268
rfoot -14.7535 -0.361372
rtoes 2.82966
lfemur -18.6827 0.977891 -8.51588
ltibia 25.5132
lfoot -10.0863 10.708
ltoes -26.6682
3975
root -1.10245 17.622 2.63406 9.80076 3.80464 -0.460293
lowerback 10.8193 1.43188 0.0339777
upperback 2.29407 1.91778 0.396222
thorax -3.68241 0.950349 0.128215
lowerneck -25.2262 -13.4057 -12.6006
upperneck 11.9856 -17.0079 15.273
head 10.3923 -6.93203 4.3938
rclavicle 5.1684e-015 -1.39149e-015
rhumerus 47.6913 -14.5355 -36.9763
rradius 53.7087
rwrist 44.5018
rhand -66.0327 -18.9124
rfingers 7.12502
rthumb -37.8739 -44.7458
lclavicle 5.1684e-015 -1.39149e-015
lhumerus -34.4835 4.17354 66.5885
lradius 39.8717
lwrist -23.1141
lhand -31.0118 18.8897
lfingers 7.12502
lthumb -4.29453 408.826
rfemur -25.2597 -8.467 14.6044
rtibia 35.5132
rfoot -14.8563 -0.33118
rtoes 3.01118
lfemur -18.3178 0.955291 -8.56577
ltibia 25.0862
lfoot -9.97069 10.9514
ltoes -26.6279
3976
root -1.14032 17.6167 2.6463 9.83309 3.50573 -0.248523
lowerback 10.8139 1.39853 0.188985
upperback 2.29646 1.89325 0.455187
thorax -3.67386 0.936858 0.105873
lowerneck -25.2616 -13.4461 -12.5157
upperneck 11.8105 -17.0104 15.0558
head 10.3008 -6.95648 4.30298
rclavicle 1.49089e-014 1.55052e-014
rhumerus 47.7246 -14.9499 -37.0607
rradius 53.5337
rwrist 44.4074
rhand -65.9984 -18.7684
rfingers 7.12502
rthumb -37.8414 -44.6106
lclavicle 1.49089e-014 1.55052e-014
lhumerus -34.5073 4.09501 66.8648
lradius 39.9677
lwrist -22.9045
lhand -31.0235 18.9576
lfingers 7.12502
lthumb -4.30586 408.894
rfemur -25.4432 -8.27145 14.4942
rtibia 35.7664
rfoot -14.9589 -0.23876
rtoes 2.97114
lfemur -18.0028 0.875402 -8.66944
ltibia 24.6805
lfoot -9.81099 11.2775
ltoes -26.5622
3977
root -1.17735 17.6138 2.6581 9.90662 3.1188 -0.0559769
lowerback 10.7838 1.37844 0.32407
upperback 2.29815 1.88374 0.512764
thorax -3.65309 0.931007 0.0918343
lowerneck -25.4909 -13.4715 -12.5015
upperneck 11.8069 -16.9888 14.9172
head 10.3154 -6.94876 4.24932
rclavicle 1.10325e-014 3.97569e-016
rhumerus 47.9369 -15.4017 -37.3369
rradius 53.3027
rwrist 44.191
rhand -66.0752 -17.7206
rfingers 7.12502
rthumb -37.914 -43.5432
lclavicle 1.10325e-014 3.97569e-016
lhumerus -34.4822 4.06577 67.1256
lradius 40.0372
lwrist -22.6567
lhand -31.0029 19.1983
lfingers 7.12502
lthumb -4.2859 409.135
rfemur -25.6881 -8.0712 14.4106
rtibia 36.0191
rfoot -15.0212 -0.133389
rtoes 2.30947
lfemur -17.6988 0.813805 -8.77352
ltibia 24.2833
lfoot -9.70555 11.6841
ltoes -26.6055
3978
root -1.21459 17.6126 2.67178 9.96156 2.80506 0.121637
lowerback 10.798 1.34675 0.521215
upperback 2.23877 1.86524 0.537084
thorax -3.7173 0.91964 0.00754623
lowerneck -25.6334 -13.4325 -12.4527
upperneck 11.911 -16.9181 14.7856
head 10.3459 -6.91737 4.20667
rclavicle -1.45113e-014 -1.98785e-015
rhumerus 47.979 -15.8272 -37.6295
rradius 53.1877
rwrist 43.992
rhand -66.0589 -17.9378
rfingers 7.12502
rthumb -37.8986 -43.7646
lclavicle -1.45113e-014 -1.98785e-015
lhumerus -34.5794 4.02956 67.2679
lradius 40.0948
lwrist -22.5125
lhand -30.9776 19.2013
lfingers 7.12502
lthumb -4.26149 409.138
rfemur -25.9057 -7.94418 14.3523
rtibia 36.29
rfoot -15.0802 -0.0769541
rtoes 2.08532
lfemur -17.3759 0.733809 -8.8523
ltibia 23.8571
lfoot -9.5433 12.0199
ltoes -26.4339
